<?xml version="1.0" encoding="UTF-8"?>
<svg xmlns="http://www.w3.org/2000/svg" xmlns:xlink="http://www.w3.org/1999/xlink" width="24px" height="24px" viewBox="0 0 24 24" version="1.1">
<g id="surface1">
<path style=" stroke:none;fill-rule:nonzero;fill:rgb(0%,0%,0%);fill-opacity:1;" d="M 11.59375 22.625 L 5.332031 22.625 C 3.632812 22.625 2.253906 21.238281 2.253906 19.542969 L 2.253906 4.457031 C 2.253906 2.753906 3.636719 1.375 5.332031 1.375 L 11.695312 1.375 C 12.078125 1.375 12.382812 1.070312 12.382812 0.6875 C 12.382812 0.304688 12.078125 0 11.695312 0 L 5.332031 0 C 2.875 0 0.878906 2 0.878906 4.457031 L 0.878906 19.542969 C 0.878906 22.003906 2.878906 24 5.332031 24 L 11.59375 24 C 11.976562 24 12.28125 23.695312 12.28125 23.3125 C 12.28125 22.929688 11.96875 22.625 11.59375 22.625 Z M 11.59375 22.625 "/>
<path style=" stroke:none;fill-rule:nonzero;fill:rgb(0%,0%,0%);fill-opacity:1;" d="M 22.921875 11.515625 L 18.550781 7.144531 C 18.28125 6.875 17.847656 6.875 17.578125 7.144531 C 17.308594 7.414062 17.308594 7.847656 17.578125 8.117188 L 20.777344 11.316406 L 6.824219 11.316406 C 6.445312 11.316406 6.136719 11.625 6.136719 12.003906 C 6.136719 12.386719 6.445312 12.691406 6.824219 12.691406 L 20.777344 12.691406 L 17.578125 15.890625 C 17.308594 16.160156 17.308594 16.59375 17.578125 16.863281 C 17.710938 16.996094 17.890625 17.066406 18.0625 17.066406 C 18.234375 17.066406 18.414062 17 18.546875 16.863281 L 22.917969 12.492188 C 23.191406 12.21875 23.191406 11.78125 22.921875 11.515625 Z M 22.921875 11.515625 "/>
</g>
</svg>
